<svg width="32" height="24" viewBox="0 0 32 24" fill="none" xmlns="http://www.w3.org/2000/svg">
  <g>
    <path d="M29 0.5H3C1.61929 0.5 0.5 1.61929 0.5 3V21C0.5 22.3807 1.61929 23.5 3 23.5H29C30.3807 23.5 31.5 22.3807 31.5 21V3C31.5 1.61929 30.3807 0.5 29 0.5Z" fill="#F0F0FF" stroke="#D9D8FF"/>
    <path d="M15.9987 20C15.7847 20 15.5713 19.944 15.384 19.8353L13.4267 18.6773C13.1347 18.514 13.2773 18.456 13.3733 18.422C13.7633 18.2866 13.842 18.2553 14.2587 18.0193C14.302 17.9946 14.3593 18.004 14.404 18.0306L15.908 18.9233C15.9627 18.9533 16.0393 18.9533 16.0893 18.9233L21.9527 15.5393C22.0073 15.508 22.042 15.4453 22.042 15.3806V8.61398C22.042 8.54798 22.0067 8.48598 21.9507 8.45265L16.09 5.07132C16.036 5.03998 15.964 5.03998 15.9093 5.07132L10.05 8.45332C9.99333 8.48598 9.95733 8.54998 9.95733 8.61398V15.3806C9.95733 15.4453 9.99333 15.5066 10.05 15.5373L11.656 16.4653C12.5273 16.9013 13.0613 16.388 13.0613 15.872V9.19132C13.0613 9.09665 13.1373 9.02265 13.232 9.02265H13.9753C14.068 9.02265 14.1453 9.09732 14.1453 9.19132V15.872C14.1453 17.0353 13.512 17.702 12.4093 17.702C12.0707 17.702 11.8033 17.702 11.0587 17.3347L9.52 16.45C9.14 16.2306 8.90533 15.82 8.90533 15.3806V8.61398C8.90533 8.17465 9.14067 7.76398 9.52 7.54532L15.3833 4.15732C15.7547 3.94732 16.2473 3.94732 16.6153 4.15732L22.478 7.54532C22.858 7.76465 23.094 8.17465 23.094 8.61398V15.3806C23.094 15.82 22.858 16.2293 22.478 16.45L16.6153 19.8353C16.4287 19.944 16.216 20 15.9987 20ZM20.7327 13.3286C20.7327 12.062 19.8767 11.7246 18.0747 11.4866C16.254 11.246 16.0687 11.1213 16.0687 10.6953C16.0687 10.3433 16.2253 9.87332 17.574 9.87332C18.7787 9.87332 19.2227 10.1326 19.4053 10.9446C19.4213 11.0213 19.4913 11.0773 19.57 11.0773H20.3307C20.378 11.0773 20.4227 11.0566 20.4547 11.0233C20.4867 10.9873 20.504 10.9413 20.4993 10.8926C20.3813 9.49398 19.452 8.84198 17.574 8.84198C15.902 8.84198 14.9047 9.54732 14.9047 10.7306C14.9047 12.014 15.8967 12.3686 17.5013 12.5273C19.4213 12.7153 19.57 12.996 19.57 13.3733C19.57 14.0287 19.044 14.308 17.8087 14.308C16.2573 14.308 15.916 13.9186 15.8013 13.1466C15.788 13.064 15.7173 13.0033 15.6327 13.0033H14.8747C14.7807 13.0033 14.7053 13.078 14.7053 13.172C14.7053 14.16 15.2427 15.3373 17.8087 15.3373C19.6673 15.338 20.7327 14.6066 20.7327 13.3286Z" fill="#4945FF"/>
  </g>
</svg>
